<svg width="92" height="58" viewBox="0 0 92 58" fill="none" xmlns="http://www.w3.org/2000/svg">
<path opacity="0.07" d="M84.7368 0H7.26316C3.14737 0 0 3.14167 0 7.25V50.75C0 54.8583 3.38947 58 7.26316 58H84.7368C88.8526 58 92 54.8583 92 50.75V7.25C92 3.14167 88.6105 0 84.7368 0Z" fill="black"/>
<path d="M84.7367 2.41663C87.3998 2.41663 89.5788 4.59163 89.5788 7.24996V50.75C89.5788 53.4083 87.3998 55.5833 84.7367 55.5833H7.263C4.59985 55.5833 2.4209 53.4083 2.4209 50.75V7.24996C2.4209 4.59163 4.59985 2.41663 7.263 2.41663H84.7367Z" fill="white"/>
<path d="M68.516 24.4084H67.7897C66.8213 26.825 66.0949 28.0334 65.3686 31.6584H69.9686C69.2423 28.0334 69.2423 26.3417 68.516 24.4084ZM75.5371 38.6667H71.4213C71.1792 38.6667 71.1792 38.6667 70.937 38.425L70.4528 36.25L70.2107 35.7667H64.4002C64.1581 35.7667 63.916 35.7667 63.916 36.25L63.1897 38.425C63.1897 38.6667 62.9476 38.6667 62.9476 38.6667H57.8634L58.3476 37.4584L65.3686 21.025C65.3686 19.8167 66.0949 19.3334 67.3055 19.3334H70.937C71.1792 19.3334 71.4213 19.3334 71.4213 19.8167L74.8107 35.525C75.0528 36.4917 75.2949 37.2167 75.2949 38.1834C75.5371 38.425 75.5371 38.425 75.5371 38.6667ZM43.0949 37.9417L44.0634 33.5917C44.3055 33.5917 44.5476 33.8334 44.5476 33.8334C46.2423 34.5584 47.937 35.0417 49.6318 34.8C50.116 34.8 50.8423 34.5584 51.3265 34.3167C52.5371 33.8334 52.537 32.625 51.5686 31.6584C51.0844 31.175 50.3581 30.9334 49.6318 30.45C48.6634 29.9667 47.6949 29.4834 46.9686 28.7584C44.0634 26.3417 45.0318 22.9584 46.7265 21.2667C48.1792 20.3 48.9055 19.3334 50.8423 19.3334C53.7476 19.3334 56.8949 19.3334 58.3476 19.8167H58.5897C58.3476 21.2667 58.1055 22.475 57.6213 23.925C56.4107 23.4417 55.2002 22.9584 53.9897 22.9584C53.2634 22.9584 52.537 22.9584 51.8107 23.2C51.3265 23.2 51.0844 23.4417 50.8423 23.6834C50.3581 24.1667 50.3581 24.8917 50.8423 25.375L52.0528 26.3417C53.0213 26.825 53.9897 27.3084 54.716 27.7917C55.9265 28.5167 57.1371 29.725 57.3792 31.175C57.8634 33.35 57.137 35.2834 55.2002 36.7334C53.9897 37.7 53.5055 38.1834 51.8107 38.1834C48.4213 38.1834 45.7581 38.425 43.5792 37.7C43.337 38.1834 43.337 38.1834 43.0949 37.9417ZM34.6213 38.6667C34.8634 36.975 34.8634 36.975 35.1055 36.25C36.316 30.9334 37.5265 25.375 38.4949 20.0584C38.737 19.575 38.7371 19.3334 39.2213 19.3334H43.5792C43.0949 22.2334 42.6107 24.4084 41.8844 27.0667C41.1581 30.6917 40.4318 34.3167 39.4634 37.9417C39.4634 38.425 39.2213 38.425 38.737 38.425M12.1055 19.8167C12.1055 19.575 12.5897 19.3334 12.8318 19.3334H21.0634C22.2739 19.3334 23.2423 20.0584 23.4844 21.2667L25.6634 31.9C25.6634 32.1417 25.6634 32.1417 25.9055 32.3834C25.9055 32.1417 26.1476 32.1417 26.1476 32.1417L31.2318 19.8167C30.9897 19.575 31.2318 19.3334 31.4739 19.3334H36.5581C36.5581 19.575 36.5581 19.575 36.316 19.8167L28.8107 37.4584C28.5686 37.9417 28.5686 38.1834 28.3265 38.425C28.0844 38.6667 27.6002 38.425 27.116 38.425H23.4844C23.2423 38.425 23.0002 38.425 23.0002 37.9417L19.1265 22.9584C18.6423 22.475 17.916 21.75 16.9476 21.5084C15.4949 20.7834 12.8318 20.3 12.3476 20.3L12.1055 19.8167Z" fill="#142688"/>
</svg>
